<?xml version="1.0" standalone="no"?>
<!DOCTYPE svg PUBLIC "-//W3C//DTD SVG 20010904//EN"
 "http://www.w3.org/TR/2001/REC-SVG-20010904/DTD/svg10.dtd">
<svg version="1.0" xmlns="http://www.w3.org/2000/svg"
 width="752.000000pt" height="150.000000pt" viewBox="0 0 752.000000 150.000000"
 preserveAspectRatio="xMidYMid meet">

<g transform="translate(0.000000,150.000000) scale(0.100000,-0.100000)"
fill="#000000" stroke="none">
<path d="M715 1350 c-411 -38 -654 -469 -474 -841 77 -160 252 -293 419 -319
36 -5 193 -10 349 -10 l283 0 34 34 c28 28 34 41 34 78 0 47 -18 80 -53 100
-16 9 -107 14 -322 18 -299 5 -300 5 -357 32 -73 34 -137 98 -174 174 -26 53
-29 69 -29 154 0 87 3 100 32 155 36 69 105 138 166 165 70 31 161 40 421 40
l248 0 34 34 c28 28 34 41 34 78 0 24 -7 54 -16 67 -33 46 -66 51 -316 50
-128 -1 -269 -5 -313 -9z" fill="currentColor"/>
<path d="M3333 1235 c-43 -19 -73 -69 -73 -123 0 -83 56 -136 142 -136 150 0
189 202 51 260 -41 18 -79 17 -120 -1z" fill="currentColor"/>
<path d="M5353 1235 c-92 -40 -99 -195 -10 -242 44 -23 122 -21 156 4 85 63
75 187 -20 235 -41 21 -82 22 -126 3z" fill="currentColor"/>
<path d="M5727 1163 c-17 -4 -17 -31 -15 -474 l3 -468 22 -23 c18 -18 37 -23
93 -26 38 -2 86 -1 105 2 l35 7 0 448 c0 302 -4 458 -11 480 -16 45 -54 61
-141 60 -40 -1 -81 -3 -91 -6z" fill="currentColor"/>
<path d="M6147 1163 c-17 -4 -17 -31 -15 -474 l3 -468 22 -23 c18 -18 37 -23
93 -26 38 -2 86 -1 105 2 l35 7 0 448 c0 302 -4 458 -11 480 -16 45 -54 61
-141 60 -40 -1 -81 -3 -91 -6z" fill="currentColor"/>
<path d="M1642 910 c-94 -25 -150 -56 -180 -100 -23 -34 -23 -35 -20 -312 3
-273 3 -278 26 -300 19 -19 35 -23 102 -26 44 -2 91 -1 105 2 l25 6 2 257 3
257 44 13 c25 7 74 16 110 19 42 4 71 12 79 22 17 23 15 103 -4 131 -38 53
-157 66 -292 31z" fill="currentColor"/>
<path d="M2125 921 c-37 -9 -68 -25 -83 -43 -17 -21 61 -404 120 -591 23 -76
47 -101 112 -118 51 -14 152 -7 191 14 31 16 46 54 110 297 13 47 25 78 28 70
3 -8 19 -64 36 -125 71 -256 74 -260 214 -260 132 1 149 12 182 119 35 113 92
364 107 461 17 121 3 155 -74 175 -39 11 -113 2 -145 -18 -10 -6 -68 -400 -74
-496 0 -6 -26 85 -57 203 -67 253 -68 254 -185 259 -55 2 -80 -1 -107 -15 -34
-18 -34 -19 -80 -203 -26 -102 -50 -198 -55 -215 -6 -23 -15 20 -41 198 -36
253 -41 267 -113 287 -40 11 -43 11 -86 1z" fill="currentColor"/>
<path d="M3885 911 c-81 -24 -137 -54 -169 -91 l-26 -32 0 -280 0 -280 29 -29
c28 -27 34 -29 108 -29 43 0 88 3 101 6 l22 6 0 263 0 263 31 11 c68 24 138 8
158 -36 7 -15 11 -103 11 -239 l0 -216 29 -29 c28 -28 33 -29 118 -29 48 0 94
4 101 9 11 6 13 62 10 277 -3 258 -4 271 -26 316 -53 108 -161 159 -336 157
-65 0 -123 -7 -161 -18z" fill="currentColor"/>
<path d="M6693 920 c-52 -11 -92 -31 -118 -60 -41 -45 -10 -170 39 -155 171
50 302 43 335 -17 9 -15 13 -29 11 -32 -3 -2 -55 -10 -115 -16 -251 -25 -332
-84 -334 -240 -1 -133 88 -216 260 -240 181 -26 393 33 429 120 8 19 10 95 8
241 -3 238 -7 255 -75 323 -59 59 -127 79 -273 82 -69 2 -144 -1 -167 -6z
m267 -499 c0 -69 -7 -74 -102 -74 -65 0 -98 20 -98 59 0 42 25 55 125 67 79
10 75 13 75 -52z" fill="currentColor"/>
<path d="M3287 903 c-17 -4 -18 -25 -15 -344 3 -336 3 -339 25 -361 18 -18 37
-23 93 -26 38 -2 86 -1 105 2 l35 7 0 318 c0 207 -4 329 -11 350 -16 45 -54
61 -141 60 -40 -1 -81 -3 -91 -6z" fill="currentColor"/>
<path d="M4582 900 c-39 -16 -54 -92 -31 -159 l11 -31 134 0 c74 0 134 -3 134
-6 0 -3 -60 -75 -132 -160 -73 -85 -141 -173 -151 -195 -22 -48 -16 -105 15
-144 l19 -25 270 0 270 0 24 25 c28 27 34 87 14 143 l-11 31 -144 3 -144 3
133 160 c73 89 139 175 146 193 19 45 9 117 -20 148 l-22 24 -246 -1 c-135 0
-256 -4 -269 -9z" fill="currentColor"/>
<path d="M5308 903 c-17 -4 -18 -29 -18 -340 l0 -335 29 -29 c28 -27 34 -29
108 -29 43 0 88 3 101 6 l23 7 -3 331 c-3 355 -4 362 -55 385 -23 11 -150 13
-185 4z" fill="currentColor"/>
<path d="M753 879 c-46 -13 -73 -53 -73 -106 0 -58 29 -99 78 -113 47 -13 466
-13 513 0 56 16 84 52 84 110 0 55 -20 84 -72 106 -38 16 -476 19 -530 3z" fill="currentColor"/>
<path d="M1004 612 c-37 -3 -49 -11 -110 -75 l-69 -72 134 -3 135 -3 73 73
c40 40 73 76 73 81 0 8 -124 7 -236 -1z" fill="currentColor"/>
</g>
</svg>
